<svg width="72" height="87" fill="none" xmlns="http://www.w3.org/2000/svg"><path d="M53.349 1.49c0-.736-.578-1.49-1.311-1.49H9.053C8.32 0 7.672.754 7.672 1.49v3.522h45.676l.001-3.522ZM54.202 81.809h-9.597V71.426h-6.958v2.507H18.774c-.537-1.254-1.757-2.148-3.181-2.148H3.559C1.642 71.784 0 73.387 0 75.311v3.018c0 1.924 1.642 3.48 3.559 3.48h12.035c1.511 0 2.792-.896 3.269-2.326h18.785v2.326H28.13c-.533 0-1.01.437-1.01.972v3.172c0 .535.478 1.048 1.01 1.048h26.072c.533 0 .93-.513.93-1.048V82.78c0-.535-.397-.971-.93-.971ZM60.666 12.39c-.861-2.937-3.567-5.05-6.771-5.05H7.148C3.25 7.34 0 10.449 0 14.361v46.9c0 3.912 3.25 7.121 7.148 7.121h46.747c3.898 0 7.126-3.209 7.126-7.121V50.915c6.066-4.204 10.001-11.211 10.001-19.164-.001-8.079-4.132-15.181-10.356-19.361ZM12.238 62.151c-3.259 0-5.901-2.65-5.901-5.921 0-3.27 2.642-5.922 5.901-5.922s5.902 2.652 5.902 5.922c0 3.271-2.643 5.921-5.902 5.921Zm5.961-32.605c0 .786-.635 1.422-1.418 1.422h-8.94c-.783 0-1.418-.637-1.418-1.422v-14.16c0-.786.635-1.423 1.418-1.423h8.939c.783 0 1.418.637 1.418 1.423l.001 14.16Zm29.563 22.312c-11.076 0-20.057-9.01-20.057-20.123 0-11.113 8.98-20.124 20.057-20.124 11.077 0 20.058 9.01 20.058 20.124 0 11.114-8.981 20.123-20.058 20.123Z" fill="#363636"/><path d="M47.762 43.964c6.7312 0 12.188-5.4751 12.188-12.229 0-6.7539-5.4568-12.229-12.188-12.229s-12.188 5.4751-12.188 12.229c0 6.7539 5.4568 12.229 12.188 12.229ZM31.562 33.171c.7925 0 1.435-.6425 1.435-1.435 0-.7925-.6425-1.435-1.435-1.435-.7925 0-1.435.6425-1.435 1.435 0 .7925.6425 1.435 1.435 1.435ZM63.963 33.171c.7925 0 1.435-.6425 1.435-1.435 0-.7925-.6425-1.435-1.435-1.435-.7925 0-1.435.6425-1.435 1.435 0 .7925.6425 1.435 1.435 1.435ZM39.109 19.429c.7925 0 1.435-.6425 1.435-1.435 0-.7925-.6425-1.435-1.435-1.435-.7925 0-1.435.6425-1.435 1.435 0 .7925.6425 1.435 1.435 1.435ZM56.415 46.912c.7898 0 1.43-.6429 1.43-1.436 0-.7931-.6402-1.436-1.43-1.436s-1.43.6429-1.43 1.436c0 .7931.6402 1.436 1.43 1.436ZM55.697 19c.7925 0 1.435-.6425 1.435-1.435 0-.7925-.6425-1.435-1.435-1.435-.7925 0-1.435.6425-1.435 1.435 0 .7925.6425 1.435 1.435 1.435ZM39.828 47.341c.7925 0 1.435-.6425 1.435-1.435 0-.7925-.6425-1.435-1.435-1.435-.7925 0-1.435.6425-1.435 1.435 0 .7925.6425 1.435 1.435 1.435Z" fill="#363636"/></svg>