<svg width="108" height="66" fill="none" xmlns="http://www.w3.org/2000/svg"><path d="M98.967 5.07411c.752 1.441 1.209 3.08 1.209 4.818V30.9941c0 4.616-3.092 8.527-7.246 9.9-1.325 3.987-3.778 7.854-8.051 10.432-8.676 5.231-31.124 4.837-31.198 4.837-.078 0-22.513.395-31.189-4.837-4.216-2.545-6.708-6.347-8.042-10.279-4.418-1.209-7.756-5.251-7.756-10.053V9.89311c0-1.688.427-3.282 1.139-4.693C4.17 6.10911 0 7.91811 0 11.4341v29.983c0 10.251 11.839 24.433 53.657 24.433 41.82 0 53.657-14.182 53.657-24.433v-29.983c-.001-3.68399-4.576-5.49399-8.347-6.35999Z" fill="#363636"/><path d="M20.561 39.4591h65.523c5.564 0 10.074-4.513 10.074-10.077v-18.447c0-5.56299-4.51-10.075-10.074-10.075H20.561c-5.564 0-10.075 4.51101-10.075 10.075v18.447c0 5.564 4.511 10.077 10.075 10.077Zm63.134-28.991c.867 0 1.569.703 1.569 1.57 0 .866-.702 1.569-1.569 1.569s-1.568-.703-1.568-1.569c0-.868.701-1.57 1.568-1.57Zm0 4.039c.867 0 1.569.703 1.569 1.568 0 .867-.702 1.569-1.569 1.569s-1.568-.702-1.568-1.569c0-.865.701-1.568 1.568-1.568Zm0 4.039c.867 0 1.569.702 1.569 1.569 0 .866-.702 1.569-1.569 1.569s-1.568-.703-1.568-1.569c0-.867.701-1.569 1.568-1.569Zm0 3.827c.867 0 1.569.704 1.569 1.569 0 .867-.702 1.568-1.569 1.568s-1.568-.701-1.568-1.568c0-.866.701-1.569 1.568-1.569Zm0 4.039c.867 0 1.569.702 1.569 1.569 0 .865-.702 1.568-1.569 1.568s-1.568-.704-1.568-1.568c0-.867.701-1.569 1.568-1.569Zm-4.039-15.944c.867 0 1.568.703 1.568 1.57 0 .866-.701 1.569-1.568 1.569-.865 0-1.568-.703-1.568-1.569 0-.868.703-1.57 1.568-1.57Zm0 15.944c.867 0 1.568.702 1.568 1.569 0 .865-.701 1.568-1.568 1.568-.865 0-1.568-.704-1.568-1.568 0-.867.703-1.569 1.568-1.569Zm-4.037-15.944c.865 0 1.568.703 1.568 1.57 0 .866-.703 1.569-1.568 1.569-.867 0-1.569-.703-1.569-1.569 0-.868.702-1.57 1.569-1.57Zm0 4.039c.865 0 1.568.703 1.568 1.568 0 .867-.703 1.569-1.568 1.569-.867 0-1.569-.702-1.569-1.569 0-.865.702-1.568 1.569-1.568Zm0 4.039c.865 0 1.568.702 1.568 1.569 0 .866-.703 1.569-1.568 1.569-.867 0-1.569-.703-1.569-1.569 0-.867.702-1.569 1.569-1.569Zm0 3.827c.865 0 1.568.704 1.568 1.569 0 .867-.703 1.568-1.568 1.568-.867 0-1.569-.701-1.569-1.568 0-.866.702-1.569 1.569-1.569Zm0 4.039c.865 0 1.568.702 1.568 1.569 0 .865-.703 1.568-1.568 1.568-.867 0-1.569-.704-1.569-1.568 0-.867.702-1.569 1.569-1.569Zm-7.654-15.944c.867 0 1.568.703 1.568 1.57 0 .866-.701 1.569-1.568 1.569-.867 0-1.568-.703-1.568-1.569-.001-.868.703-1.57 1.568-1.57Zm0 8.078c.867 0 1.568.702 1.568 1.569 0 .866-.701 1.569-1.568 1.569-.867 0-1.568-.703-1.568-1.569-.001-.867.703-1.569 1.568-1.569Zm0 3.881c.867 0 1.568.701 1.568 1.568 0 .865-.701 1.569-1.568 1.569-.867 0-1.568-.704-1.568-1.569-.001-.867.703-1.568 1.568-1.568Zm0 3.985c.867 0 1.568.702 1.568 1.569 0 .865-.701 1.568-1.568 1.568-.867 0-1.568-.704-1.568-1.568-.001-.867.703-1.569 1.568-1.569Zm-4.039-15.944c.867 0 1.57.703 1.57 1.57 0 .866-.703 1.569-1.57 1.569-.865 0-1.569-.703-1.569-1.569-.001-.868.704-1.57 1.569-1.57Zm0 8.078c.867 0 1.57.702 1.57 1.569 0 .866-.703 1.569-1.57 1.569-.865 0-1.569-.703-1.569-1.569-.001-.867.704-1.569 1.569-1.569Zm0 7.866c.867 0 1.57.702 1.57 1.569 0 .865-.703 1.568-1.57 1.568-.865 0-1.569-.704-1.569-1.568-.001-.867.704-1.569 1.569-1.569Zm-4.038-15.944c.865 0 1.569.703 1.569 1.57 0 .866-.704 1.569-1.569 1.569-.867 0-1.568-.703-1.568-1.569-.001-.868.701-1.57 1.568-1.57Zm0 4.039c.865 0 1.569.703 1.569 1.568 0 .867-.704 1.569-1.569 1.569-.867 0-1.568-.702-1.568-1.569-.001-.865.701-1.568 1.568-1.568Zm0 4.039c.865 0 1.569.702 1.569 1.569 0 .866-.704 1.569-1.569 1.569-.867 0-1.568-.703-1.568-1.569-.001-.867.701-1.569 1.568-1.569Zm0 7.866c.865 0 1.569.702 1.569 1.569 0 .865-.704 1.568-1.569 1.568-.867 0-1.568-.704-1.568-1.568-.001-.867.701-1.569 1.568-1.569Zm-8.29-15.944c.867 0 1.569.703 1.569 1.57 0 .866-.702 1.569-1.569 1.569s-1.568-.703-1.568-1.569c-.001-.868.701-1.57 1.568-1.57Zm0 4.039c.867 0 1.569.703 1.569 1.568 0 .867-.702 1.569-1.569 1.569s-1.568-.702-1.568-1.569c-.001-.865.701-1.568 1.568-1.568Zm0 4.039c.867 0 1.569.702 1.569 1.569 0 .866-.702 1.569-1.569 1.569s-1.568-.703-1.568-1.569c-.001-.867.701-1.569 1.568-1.569Zm0 3.881c.867 0 1.569.701 1.569 1.568 0 .865-.702 1.569-1.569 1.569s-1.568-.704-1.568-1.569c-.001-.867.701-1.568 1.568-1.568Zm0 3.985c.867 0 1.569.702 1.569 1.569 0 .865-.702 1.568-1.569 1.568s-1.568-.704-1.568-1.568c-.001-.867.701-1.569 1.568-1.569Zm-4.039-11.905c.867 0 1.568.703 1.568 1.568 0 .867-.701 1.569-1.568 1.569-.867 0-1.569-.702-1.569-1.569 0-.865.701-1.568 1.569-1.568Zm-8.502-.212c.865 0 1.569.703 1.569 1.568 0 .867-.704 1.569-1.569 1.569-.867 0-1.571-.703-1.571-1.569 0-.865.703-1.568 1.571-1.568Zm0 4.038c.865 0 1.569.703 1.569 1.57 0 .866-.704 1.57-1.569 1.57-.867 0-1.571-.704-1.571-1.57 0-.867.703-1.57 1.571-1.57Zm-4.039-8.078c.865 0 1.568.703 1.568 1.57 0 .866-.704 1.568-1.568 1.568-.867 0-1.569-.703-1.569-1.568 0-.867.701-1.57 1.569-1.57Zm0 4.04c.865 0 1.568.703 1.568 1.568 0 .867-.704 1.569-1.568 1.569-.867 0-1.569-.703-1.569-1.569 0-.865.701-1.568 1.569-1.568Zm0 4.038c.865 0 1.568.703 1.568 1.57 0 .866-.704 1.57-1.568 1.57-.867 0-1.569-.704-1.569-1.57 0-.867.701-1.57 1.569-1.57Zm0 4.04c.865 0 1.568.704 1.568 1.569 0 .867-.704 1.568-1.568 1.568-.867 0-1.569-.701-1.569-1.568 0-.866.701-1.569 1.569-1.569Zm-4.254-8.078c.867 0 1.569.703 1.569 1.568 0 .867-.702 1.569-1.569 1.569s-1.568-.703-1.568-1.569c0-.865.701-1.568 1.568-1.568Zm0 4.038c.867 0 1.569.703 1.569 1.57 0 .866-.702 1.57-1.569 1.57s-1.568-.704-1.568-1.57c0-.867.701-1.57 1.568-1.57Zm0 4.04c.867 0 1.569.704 1.569 1.569 0 .867-.702 1.568-1.569 1.568s-1.568-.701-1.568-1.568c0-.866.701-1.569 1.568-1.569Zm0 4.039c.867 0 1.569.702 1.569 1.569 0 .865-.702 1.568-1.569 1.568s-1.568-.704-1.568-1.568c0-.867.701-1.569 1.568-1.569ZM26.3 10.2551c.867 0 1.571.703 1.571 1.57 0 .866-.704 1.568-1.571 1.568-.865 0-1.569-.703-1.569-1.568 0-.867.704-1.57 1.569-1.57Zm0 4.04c.867 0 1.571.703 1.571 1.568 0 .867-.704 1.569-1.571 1.569-.865 0-1.569-.703-1.569-1.569 0-.865.704-1.568 1.569-1.568Zm0 4.038c.867 0 1.571.703 1.571 1.57 0 .866-.704 1.57-1.571 1.57-.865 0-1.569-.704-1.569-1.57 0-.867.704-1.57 1.569-1.57Zm0 4.04c.867 0 1.571.704 1.571 1.569 0 .867-.704 1.568-1.571 1.568-.865 0-1.569-.701-1.569-1.568 0-.866.704-1.569 1.569-1.569Zm-4.037-8.078c.865 0 1.569.703 1.569 1.568 0 .867-.704 1.569-1.569 1.569-.867 0-1.569-.703-1.569-1.569 0-.865.702-1.568 1.569-1.568Zm0 4.038c.865 0 1.569.703 1.569 1.57 0 .866-.704 1.57-1.569 1.57-.867 0-1.569-.704-1.569-1.57 0-.867.702-1.57 1.569-1.57Z" fill="#363636"/></svg>