<svg width="87" height="117" fill="none" xmlns="http://www.w3.org/2000/svg"><path d="M82.821 4.011H3.33003c-1.761 0-3.188 1.427-3.188 3.188v46.413c0 1.763 1.427 3.189 3.188 3.189H82.822c1.762 0 3.189-1.427 3.189-3.189V7.199c0-1.761-1.428-3.188-3.19-3.188ZM8.39203 37.236h-.226c-1.762 0-3.189-1.429-3.189-3.189v-7.283c0-1.761 1.427-3.188 3.189-3.188h.226v13.66ZM69.623 52.408H13.341V8.402h56.282v44.006ZM78.4 34.552c-2.289 0-4.146-1.855-4.146-4.147 0-2.292 1.856-4.147 4.146-4.147 2.291 0 4.148 1.855 4.148 4.147 0 2.292-1.857 4.147-4.148 4.147ZM54.654 0H31.497v2.758h23.157V0ZM46.608 64.861v-2.973h8.046V59.13H31.498v2.758h8.045v35.246c-2.139.938-3.635 3.072-3.635 5.559V117h14.335v-14.307c0-2.486-1.495-4.621-3.636-5.557v-27.99h4.796l5.051 1.213v-6.711l-5.051 1.213h-4.795Z" fill="#363636"/></svg>