<svg width="97" height="55" fill="none" xmlns="http://www.w3.org/2000/svg"><path d="M84.1314 32.639V20.003c0-1.309 1.045-2.37 2.335-2.37l8.326 1.581V11.02c0-2.35503-1.708-3.43103-4.202-4.26503l-23.187-6.58c1.616 1.391 1.889 2.04 1.889 4.396V49.78c0 2.356-.45 4.066-1.967 5.21l23.265-7.065c2.401-.833 4.202-4.216 4.202-6.572V33.44l-8.326 1.567c-1.29.002-2.335-1.06-2.335-2.368Z" fill="#363636"/><path d="m95.1294 20.979-7.598-1.444c-1.008 0-1.824.829-1.824 1.851v9.868c0 1.023.816 1.852 1.824 1.852l7.598-1.431c1.154-.419 1.824-.829 1.824-1.852V22.83c0-1.022-.766-1.507-1.824-1.851ZM67.1704 4.48297c0-5.08-4.232-4.459-4.232-4.459s-57.10599 4.714-60.09999 5.121c-2.994.407-2.837 4.387-2.837 4.387S.00041 42.069.00041 45.812c0 3.743 2.599 3.753 2.599 3.753l16.47699 1.403 8.136-11.668s1.109-1.828 2.505-1.828c1.397 0 2.432 1.861 2.432 1.861l9.061 13.521s18.895 1.909 22.521 1.909c3.626-.001 3.439-5.024 3.439-5.024V4.48297ZM12.9824 37.192c-3.69798 0-6.69599-4.601-6.69599-10.275s2.99801-10.275 6.69599-10.275c3.698 0 6.696 4.601 6.696 10.275s-2.998 10.275-6.696 10.275Zm36.158 1.426c-4.662 0-8.441-5.239-8.441-11.701 0-6.463 3.78-11.702 8.441-11.702 4.662 0 8.442 5.239 8.442 11.702 0 6.462-3.78 11.701-8.442 11.701Z" fill="#363636"/></svg>